<svg xmlns="http://www.w3.org/2000/svg" viewBox="0 0 258.79 34.62"><g data-name="Layer 2"><path d="M0 34.19h20.68L10.4 0zM36.87 9.78l-3-9.73H12.38l2.94 9.73zM19 22h21.53l-3-9.72H16.08zm22.19 2.48H19.75l2.95 9.73h21.52z" fill="#db2f29"/><path d="M51.71 12.88h7a11.27 11.27 0 0 1 7.3 2.26 10.62 10.62 0 0 1 3.21 4.36 11.19 11.19 0 0 1 .78 4.09 10.37 10.37 0 0 1-2.65 7 9.81 9.81 0 0 1-4.14 2.87 14.7 14.7 0 0 1-4.75.69h-6.77V21.08h5.86v8.11a10.57 10.57 0 0 0 2.62-.33 4.89 4.89 0 0 0 1.78-1A5.37 5.37 0 0 0 63.42 26a5.81 5.81 0 0 0 .58-2.46 5.68 5.68 0 0 0-.55-2.43 5.29 5.29 0 0 0-1.51-1.94 4.74 4.74 0 0 0-1.75-.88 10.27 10.27 0 0 0-2.64-.29h-5.84zm34.81 0V18H72.21v-5.12zm0 8.19v5.12H78v2.88h8.49v5.11H72.21V21.07zm16.78-8.19a8.86 8.86 0 0 0-.16 1.36 3 3 0 0 0 .4 1.4 12.09 12.09 0 0 0 1.46 1.89c1.39 1.59 2.36 2.73 2.89 3.4a14 14 0 0 1 1.26 1.88 8 8 0 0 1 1.13 4 7.62 7.62 0 0 1-1 3.84q-2 3.54-7.28 3.54h-6v-5.12h5.2a3 3 0 0 0 2.34-.83 2.25 2.25 0 0 0 .58-1.46 3.38 3.38 0 0 0-.64-1.89 49.46 49.46 0 0 0-3.2-3.89 16.24 16.24 0 0 1-2.73-3.84 6.08 6.08 0 0 1-.49-2.26 12.24 12.24 0 0 1 .22-2h6zm14.49 0V18h-5.85v-5.12zm0 8.19v13.11h-5.85V21.07zm2.56-8.19h15.07a17.46 17.46 0 0 1 4.08.36 5.2 5.2 0 0 1 2.33 1.36 5.43 5.43 0 0 1 1.34 2.26 12.3 12.3 0 0 1 .4 3.47v13.86h-5.85V20.55a2.94 2.94 0 0 0-.51-2 2.78 2.78 0 0 0-2-.52h-9V34.2h-5.85V12.88zm14.32 8.19v13.11h-5.4V21.07zm22-8.61a11.91 11.91 0 0 1 5.28 1.21 9.77 9.77 0 0 1 4.8 5 12.45 12.45 0 0 1 .92 4.93 10.86 10.86 0 0 1-3 7.88 10.35 10.35 0 0 1-7.78 3.1 10.87 10.87 0 0 1-7.83-3 10.68 10.68 0 0 1-3.28-8 11.74 11.74 0 0 1 1.34-5.57 10.2 10.2 0 0 1 4.52-4.41 11.61 11.61 0 0 1 5-1.18zm0 4.9a4.28 4.28 0 0 0-3.69 1.76 7.3 7.3 0 0 0-1.17 4.36 7.44 7.44 0 0 0 1.36 4.63 4.24 4.24 0 0 0 3.57 1.59 4.19 4.19 0 0 0 3.77-1.91 7.58 7.58 0 0 0 1.08-4.18 7.07 7.07 0 0 0-1.44-4.71 4.43 4.43 0 0 0-3.45-1.54zm13.16-4.48H179a13.57 13.57 0 0 1 3.36.36 5.72 5.72 0 0 1 2.26 1.19 5.09 5.09 0 0 1 1.51 2.18 10.15 10.15 0 0 1 .46 3.29v14.31h-5.85v-14a2.34 2.34 0 0 0-.5-1.72 2.68 2.68 0 0 0-1.8-.46h-2.77V34.2h-5.89zm33.68 0V18h-14.36v-5.12zm0 8.19v5.12H195v2.88h8.49v5.11h-14.34V21.07zm14.07 9.76h1.73v.86a3.89 3.89 0 0 1-1.32.2 2.82 2.82 0 0 1-.84-.12 1.67 1.67 0 0 1-.47-.24.7.7 0 0 1-.19-.29 1.69 1.69 0 0 1-.11-.41v-2.57a1.61 1.61 0 0 1 .43-1.22 2.46 2.46 0 0 1 1.54-.37 12 12 0 0 1 2.24.19l.59.11v-2.21l-.4-.08a10.61 10.61 0 0 0-4.08-.13 5.47 5.47 0 0 0-1.12.36 2.92 2.92 0 0 0-.82.61 3.45 3.45 0 0 0-.5.68 3.16 3.16 0 0 0-.26.8 4.56 4.56 0 0 0-.1.69v3.36a7.12 7.12 0 0 0 .15.76 2.37 2.37 0 0 0 .43.92 4.14 4.14 0 0 0 .7.68 3.11 3.11 0 0 0 1.2.56 6.21 6.21 0 0 0 1.6.21 6.61 6.61 0 0 0 3.5-.95l.24-.14v-4.45h-4.13zM229 30.6a2.36 2.36 0 0 0 .82-.5 2 2 0 0 0 .6-1 6 6 0 0 0 0-3 2.06 2.06 0 0 0-.78-1.08 2.86 2.86 0 0 0-1.05-.45 7.55 7.55 0 0 0-1.28-.1h-3.8V34H226v-3.13h.23l1.89 3.13h3l-2.4-3.36zm-3-3.83h1.3a1 1 0 0 1 .66.15s.15.14.15.79-.15.78-.15.78-.23.15-.66.15H226zm14.32.23a3.1 3.1 0 0 0-.26-.78 3.29 3.29 0 0 0-.49-.69 2.65 2.65 0 0 0-.81-.62 5.06 5.06 0 0 0-1.1-.36 7.5 7.5 0 0 0-2.91 0 5.35 5.35 0 0 0-1.09.36 2.88 2.88 0 0 0-.81.61 3.33 3.33 0 0 0-.48.69 2.71 2.71 0 0 0-.26.79 3.78 3.78 0 0 0-.1.69v3.21a3.75 3.75 0 0 0 .1.7 2.71 2.71 0 0 0 .26.79 3 3 0 0 0 .48.68 2.7 2.7 0 0 0 .81.61 4.77 4.77 0 0 0 1.09.37 7.31 7.31 0 0 0 1.46.14 7.13 7.13 0 0 0 1.45-.14 4.55 4.55 0 0 0 1.1-.37 2.51 2.51 0 0 0 .82-.62 3.29 3.29 0 0 0 .48-.68 3.25 3.25 0 0 0 .26-.78 4.84 4.84 0 0 0 .1-.7v-3.2a4.84 4.84 0 0 0-.1-.7zm-2.39 1.31v1.94a1.82 1.82 0 0 1-.34 1.31 2 2 0 0 1-1.38.33 2.15 2.15 0 0 1-1.36-.33 1.69 1.69 0 0 1-.36-1.3v-2a1.84 1.84 0 0 1 .34-1.31 2.1 2.1 0 0 1 1.38-.32 2 2 0 0 1 1.37.32c.16.18.34.53.35 1.36zm9.26 2.07a2 2 0 0 1-.27 1.24 1.32 1.32 0 0 1-.94.27 1.42 1.42 0 0 1-1-.28 1.89 1.89 0 0 1-.27-1.23v-5.87h-2.5v5.87a4.14 4.14 0 0 0 .81 2.84 3.7 3.7 0 0 0 2.89.93 4 4 0 0 0 2.95-.87 4 4 0 0 0 .87-2.9v-5.87h-2.5zm11.39-4.24a2 2 0 0 0-.78-1.08 2.75 2.75 0 0 0-1-.45 7.34 7.34 0 0 0-1.27-.1h-3.82V34h2.5v-3.1h1.32a6.46 6.46 0 0 0 1.27-.1 3 3 0 0 0 1-.43 2.09 2.09 0 0 0 .78-1.08 6 6 0 0 0 0-3.15zm-2.44 2.35c-.05.05-.21.15-.65.15h-1.32v-1.87h1.32a1 1 0 0 1 .65.15s.14.14.14.79-.14.78-.14.78z" fill="#129337"/></g></svg>