<?xml version="1.0" encoding="UTF-8"?><svg id="Ebene_2" xmlns="http://www.w3.org/2000/svg" viewBox="0 0 181.818 56.77"><defs><style>.cls-1{fill:#fff;stroke-width:0px;}</style></defs><g id="weiss_transparent"><path class="cls-1" d="M90.909,0c-15.677,0-28.385,12.708-28.385,28.385,0,10.116,5.296,18.99,13.263,24.017V12.085h9.006v4.196c.746-1.462,1.935-2.635,3.571-3.518,1.635-.882,3.819-1.323,6.552-1.323,3.519,0,6.252.721,8.198,2.162,1.946,1.442,3.292,3.464,4.037,6.067.746,2.604,1.118,5.885,1.118,9.843,0,5.68-.963,10.113-2.888,13.297-1.925,3.185-5.414,4.776-10.465,4.776-2.899,0-5.135-.442-6.708-1.323-1.574-.881-2.712-2.14-3.416-3.776v13.615c1.971.433,4.016.668,6.117.668,15.677,0,28.385-12.708,28.385-28.385S106.586,0,90.909,0Z"/><path class="cls-1" d="M92.059,40.486c2.815,0,4.689-.936,5.621-2.808.932-1.872,1.398-4.592,1.398-8.165,0-3.657-.466-6.422-1.398-8.294-.932-1.872-2.805-2.808-5.621-2.808-2.94,0-4.969.915-6.087,2.743-1.118,1.829-1.677,4.615-1.677,8.359,0,3.615.568,6.348,1.708,8.197,1.138,1.851,3.157,2.776,6.055,2.776Z"/><path class="cls-1" d="M28.385,0c-2.134,0-4.211.243-6.21.69v15.923c.87-1.635,2.214-2.861,4.037-3.68,1.822-.817,3.975-1.226,6.459-1.226,4.016,0,6.873.947,8.571,2.84,1.697,1.894,2.546,4.841,2.546,8.843v23.818h-9.006v-21.365c0-2.409-.384-4.099-1.149-5.067-.767-.968-2.205-1.452-4.317-1.452-1.946,0-3.499.387-4.658,1.162-1.16.775-1.987,2.065-2.484,3.873v22.85h-9.006V4.428C5.255,9.465,0,18.309,0,28.385c0,15.676,12.708,28.385,28.385,28.385s28.385-12.708,28.385-28.385S44.062,0,28.385,0Z"/><path class="cls-1" d="M178.715,15.486l-8.296,31.456h-11.303l-5.527-23.818h-.373l-5.527,23.818h-11.303l-8.201-31.52c-2,3.887-3.136,8.292-3.136,12.964,0,15.676,12.708,28.385,28.385,28.385s28.385-12.708,28.385-28.385c0-4.647-1.124-9.028-3.103-12.9Z"/><path class="cls-1" d="M136.881,12.086l5.279,25.173h.373l5.9-25.173h10.186l5.901,25.173h.373l2.713-12.937-.005-.002,3.75-17.949c-4.886-3.982-11.121-6.372-17.916-6.372-9.609,0-18.097,4.78-23.233,12.086h6.681Z"/></g></svg>