<svg fill="none" height="194" viewBox="0 0 640 194" width="640" xmlns="http://www.w3.org/2000/svg" xmlns:xlink="http://www.w3.org/1999/xlink"><clipPath id="a"><path d="m0 0h640v194h-640z"/></clipPath><mask id="b" height="66" maskUnits="userSpaceOnUse" width="320" x="40" y="64"><path d="m40 129.195h319.928v-64.9938h-319.928z" fill="#fff"/></mask><g clip-path="url(#a)"><path d="m0 194h640v-65h-640z" fill="#91d44f"/><path d="m0 129.194h639.994v-129.178375h-639.994z" fill="#1673c3"/><path d="m40 129.199h320v-64.9998h-320z" fill="#231f20"/><g fill="#fff"><g mask="url(#b)"><path clip-rule="evenodd" d="m114.844 129.355c-.977-5.03-1.218-10.065-1.218-15.106v-23.8094c0-19.5297-14.0035-26.5216-30.1975-26.5216-9.376 0-17.533 1.3487-25.322 4.5387l.361 14.9824c6.09-3.4376 13.153-4.7885 20.218-4.7885 7.908 0 14.361 2.3321 14.483 11.039-2.802-.4841-6.697-.8537-10.228-.8537-11.69 0-32.753 2.3353-32.753 21.8621 0 13.873 11.202 20.131 23.745 20.131 9.008 0 15.094-3.557 20.092-11.539h.244c0 3.318.362 6.626.482 10.065zm-44.1955-20.258c0-6.136 5.836-8.473 13.27-8.473 3.284 0 6.448.244 9.25.369 0 7.497-5.236 15.109-13.514 15.109-5.114 0-9.006-2.578-9.006-7.005z" fill-rule="evenodd"/><path clip-rule="evenodd" d="m349.733 129.355c-.972-5.03-1.22-10.065-1.22-15.106v-23.8094c0-19.5297-14.004-26.5216-30.196-26.5216-9.373 0-17.533 1.3487-25.324 4.5387l.369 14.9824c6.087-3.4376 13.146-4.7885 20.207-4.7885 7.919 0 14.366 2.3321 14.487 11.039-2.795-.4841-6.695-.8537-10.228-.8537-11.682 0-32.75 2.3353-32.75 21.8621 0 13.873 11.203 20.131 23.741 20.131 9.009 0 15.1-3.557 20.096-11.539h.241c0 3.318.364 6.626.489 10.065zm-44.197-20.258c0-6.136 5.841-8.473 13.27-8.473 3.291 0 6.455.244 9.25.369 0 7.497-5.228 15.109-13.511 15.109-5.114 0-9.009-2.578-9.009-7.005z" fill-rule="evenodd"/><path d="m212.409 127.768c6.457 2.085 13.153 3.066 23.012 3.066 14.37 0 29.585-4.299 29.585-21.362 0-24.3023-32.628-16.4502-32.628-26.388 0-3.5684 5.365-4.421 10.107-4.421 5.485 0 12.42 1.4664 17.049 4.288l1.701-15.3442c-7.055-2.8195-14.731-3.683-22.28-3.683-12.662 0-27.033 6.0118-27.033 20.7499 0 23.0793 31.178 15.4723 31.178 26.2713 0 4.418-4.386 5.161-8.893 5.161-7.914 0-15.465-2.213-20.576-4.421z"/><path d="m137.953 129.364h16.988v-29.187h.182l19.817 29.187h21.199l-25.416-34.3421 23.106-30.9047h-19.531l-19.357 27.2164v-27.2164h-16.988z"/></g><path d="m512.375 103.828h4.397l-9.375 11.955v13.427h-3.725v-13.427l-9.375-11.955h4.397l6.795 8.758z"/><path d="m483.275 116.709h8.521v10.756c-3.125 1.357-6.226 2.035-9.303 2.035-4.203 0-7.564-1.223-10.084-3.67-2.507-2.459-3.761-5.487-3.761-9.085 0-3.791 1.303-6.946 3.907-9.466 2.604-2.519 5.868-3.779 9.793-3.779 1.429 0 2.786.157 4.07.472 1.284.303 2.907.866 4.869 1.69v3.707c-3.028-1.757-6.032-2.635-9.012-2.635-2.774 0-5.111.945-7.013 2.834-1.902 1.89-2.853 4.21-2.853 6.959 0 2.883.951 5.239 2.853 7.068s4.348 2.744 7.34 2.744c1.454 0 3.192-.334 5.215-1l.345-.109v-5.287h-4.887z"/><path d="m447.172 129.21v-25.382h6.359c2.568 0 4.603.636 6.105 1.908 1.514 1.272 2.271 2.992 2.271 5.16 0 1.478-.369 2.756-1.108 3.834s-1.799 1.883-3.18 2.416c.812.533 1.605 1.26 2.38 2.18.775.921 1.866 2.526 3.271 4.815.884 1.442 1.593 2.526 2.125 3.252l1.345 1.817h-4.324l-1.109-1.671c-.036-.061-.109-.164-.218-.309l-.708-.999-1.127-1.854-1.217-1.98c-.751-1.042-1.441-1.871-2.071-2.489-.618-.618-1.181-1.06-1.69-1.327-.497-.278-1.338-.417-2.526-.417h-.944v11.046zm4.724-22.293h-1.09v8.012h1.381c1.841 0 3.1-.157 3.779-.472.69-.315 1.223-.787 1.599-1.417.387-.642.581-1.369.581-2.18 0-.8-.212-1.521-.636-2.163-.424-.654-1.023-1.114-1.799-1.38-.763-.267-2.035-.4-3.815-.4z"/><path d="m428.453 103.828h14.39v3.234h-10.756v7.74h10.393v3.253h-10.393v7.885h11.101v3.234h-14.735z"/><path d="m419.559 103.828h3.452v25.382h-3.125l-16.97-19.531v19.531h-3.416v-25.382h2.943l17.116 19.695z"/><path d="m380.781 103.828h14.39v3.234h-10.756v7.74h10.393v3.253h-10.393v7.885h11.101v3.234h-14.735z"/></g></g></svg>